<?xml version="1.0" encoding="utf-8"?>
<!-- Generator: Adobe Illustrator 24.0.2, SVG Export Plug-In . SVG Version: 6.00 Build 0)  -->
<svg version="1.1" xmlns="http://www.w3.org/2000/svg" xmlns:xlink="http://www.w3.org/1999/xlink" x="0px" y="0px"
	 viewBox="0 0 1722 1067" style="enable-background:new 0 0 1722 1067;" xml:space="preserve">
<style type="text/css">
	.st0{fill-rule:evenodd;clip-rule:evenodd;fill:#FFFFFF;}
</style>
<g id="Capa_1">
	<path class="st0" d="M95.2,362.9c20.2,15.4-28.2,37.6,0,101.5c28.2,63.9,176.1,52.7,353.5-18.6L904.9,214
		c96.2-15.3,128,2.7,150.1,76.1l15.8,81.2c65.4-124.6,104.3-193.6,231.1-292.7c71.5-40.2,112.1-61.5,199.5-67.7
		c0,0,116.5,5.1,148.1,25.4c14,9,34.8,25.3,43.4,40.6c10.9,19.3,31.6,45.7,7.9,37.2c-23.7-8.5-35.5-35.5-73.1-57.5
		s-154.5,1.6-219.2,38.9c-79.2,43.5-110.4,73.5-181.7,169.2c-64.1,76.8-100.6,129.5-124.4,228.4c-27.2,86.3-36,142.2-47.4,247
		c-7.5,75.9,1.2,111.3,47.4,157.4c45.9,31.9,74,16.6,124.4-16.9c85.8-73.4,126.8-119.6,181.7-214.9
		c6.6-21.7,136.3-214.3,152.1-201.3c15.7,12.9,17.6,83.1-15.8,201.3c-6.5,71.2-17.7,108.8-19.7,172.6c-2,63.8,15.8,132,0,150.6
		c-15.8,18.6-53.3,49.1-116.5,60.9c-63.2,11.8-149.3-5-252.8-27.1L847.6,897.6c-32.8,47.6-51.3,74.3-130.3,125.2
		c-51.8,24-63.7,37.1-148.1,32.1c-83,4.3-122.4-59.2-118.5-98.1c3.9-38.9,27.8-94.6,94.8-118.4c67-23.8,154.9-32.9,223.2-5.1
		c73.7-97.2,103.9-153.8,158-270.7c29.3-75.4,45-123.8,71.1-226.7c0.6-105.8-27.3-123.5-142.2-59.2L587,425.5
		c-82.9,42.6-135.5,65.7-276.5,101.5c-43.2,9.4-70.1,13.4-132.3,13.5c-61.2-13.7-94.8-18.6-142.2-64.3
		c-47.4-45.7-15.8-110-9.9-118.4C32,349.4,75,347.5,95.2,362.9z M504,912.8c-21,26.6-21,42.3-9.9,71.1c11.4,15.9,20.4,22,43.4,25.4
		c30.3,4.8,45.3,2.2,69.1-10.2c30.6-17.2,47.1-27.1,69.1-49.1c27.7-31,47.3-45.9,71.1-84.6c-27.2-17.4-75-20.8-156-6.8
		C551.5,869.1,532.5,881.1,504,912.8z M1055,950.1l-191.6-79.5l128.4-257.2v121.8c2.4,60.7,7,93.4,29.6,145.5
		c18.7,30,27.8,47.6,75,62.6c76.8,12.9,110.4-16.4,171.8-62.6c69.7-64.8,106.3-106.5,161.9-203l114.5-184.4l-1.7,6
		c-47.9,167.9-75.2,263.8-104.9,435.7c-20.7,7.9-30.7,14.7-39.5,38.9c-47.1,26-91.8,28.8-211.3,8.5
		C1142.7,974.2,1115.3,968.2,1055,950.1z"/>
</g>
<g id="Capa_2">
</g>
</svg>
