<?xml version="1.0" encoding="utf-8"?>
<!-- Generator: Adobe Illustrator 24.0.2, SVG Export Plug-In . SVG Version: 6.00 Build 0)  -->
<svg version="1.1" id="Capa_1" xmlns="http://www.w3.org/2000/svg" xmlns:xlink="http://www.w3.org/1999/xlink" x="0px" y="0px"
	 viewBox="0 0 1200 800" style="enable-background:new 0 0 1200 800;" xml:space="preserve">
<style type="text/css">
	.st0{fill-rule:evenodd;clip-rule:evenodd;}
</style>
<path class="st0" d="M721.6,452.9c-6.6-3.3-39.1-19.3-45.1-21.5c-6.1-2.2-10.5-3.3-14.9,3.3c-4.4,6.6-17.1,21.5-20.9,25.9
	c-3.9,4.4-7.7,5-14.3,1.7c-6.6-3.3-27.9-10.3-53.1-32.8c-19.6-17.5-32.9-39.1-36.7-45.7c-3.9-6.6-0.4-10.2,2.9-13.5
	c3-3,6.6-7.7,9.9-11.6c3.3-3.9,4.4-6.6,6.6-11c2.2-4.4,1.1-8.3-0.6-11.6c-1.6-3.3-14.9-35.8-20.4-49c-5.4-12.9-10.8-11.1-14.9-11.3
	c-3.8-0.2-8.3-0.2-12.7-0.2c-4.4,0-11.6,1.7-17.6,8.3c-6.1,6.6-23.1,22.6-23.1,55.1c0,32.5,23.7,63.9,27,68.3
	c3.3,4.4,46.6,71.1,112.8,99.7c15.8,6.8,28.1,10.9,37.6,13.9c15.8,5,30.2,4.3,41.6,2.6c12.7-1.9,39.1-16,44.6-31.4
	c5.5-15.4,5.5-28.6,3.9-31.4C732.6,457.9,728.2,456.2,721.6,452.9 M601.1,617.5L601.1,617.5c-39.5,0-78.2-10.6-111.9-30.6l-8-4.8
	l-83.1,21.8l22.2-81.1l-5.2-8.3c-22-35-33.6-75.4-33.6-116.9C381.5,276.5,480,178,601.2,178c58.7,0,113.8,22.9,155.3,64.4
	c41.5,41.5,64.3,96.7,64.3,155.4C820.7,518.9,722.2,617.5,601.1,617.5 M783.1,211c-49.9-50-116.3-77.5-186.9-77.5
	c-145.7,0-264.2,118.5-264.3,264.3c0,46.6,12.1,92,35.3,132.1l-37.5,136.9l140.1-36.8c38.6,21.1,82.1,32.2,126.3,32.2h0.1
	c145.7,0,264.2-118.6,264.3-264.3C860.4,327.3,833,260.9,783.1,211"/>
</svg>
